<mxfile host="app.diagrams.net" modified="2024-07-15T04:56:30.203Z" agent="Mozilla/5.0 (Windows NT 10.0; Win64; x64; rv:128.0) Gecko/20100101 Firefox/128.0" etag="vRv-aAfeuUbHSmcnPlpB" version="24.6.5" type="device">
  <diagram id="prtHgNgQTEPvFCAcTncT" name="Page-1">
    <mxGraphModel dx="1295" dy="483" grid="1" gridSize="10" guides="1" tooltips="1" connect="1" arrows="1" fold="1" page="1" pageScale="1" pageWidth="827" pageHeight="1169" math="0" shadow="0">
      <root>
        <mxCell id="0" />
        <mxCell id="1" parent="0" />
        <mxCell id="dNxyNK7c78bLwvsdeMH5-19" value="Connection Negotiation" style="swimlane;html=1;childLayout=stackLayout;resizeParent=1;resizeParentMax=0;horizontal=0;startSize=20;horizontalStack=0;" parent="1" vertex="1">
          <mxGeometry x="120" y="120" width="600" height="450" as="geometry" />
        </mxCell>
        <mxCell id="dNxyNK7c78bLwvsdeMH5-20" value="Client" style="swimlane;html=1;startSize=20;horizontal=0;" parent="dNxyNK7c78bLwvsdeMH5-19" vertex="1">
          <mxGeometry x="20" width="580" height="120" as="geometry" />
        </mxCell>
        <mxCell id="dNxyNK7c78bLwvsdeMH5-25" value="" style="edgeStyle=orthogonalEdgeStyle;rounded=0;orthogonalLoop=1;jettySize=auto;html=1;" parent="dNxyNK7c78bLwvsdeMH5-20" source="dNxyNK7c78bLwvsdeMH5-23" target="dNxyNK7c78bLwvsdeMH5-24" edge="1">
          <mxGeometry relative="1" as="geometry" />
        </mxCell>
        <mxCell id="dNxyNK7c78bLwvsdeMH5-23" value="Start" style="ellipse;whiteSpace=wrap;html=1;" parent="dNxyNK7c78bLwvsdeMH5-20" vertex="1">
          <mxGeometry x="40" y="30" width="40" height="40" as="geometry" />
        </mxCell>
        <mxCell id="dNxyNK7c78bLwvsdeMH5-24" value="&lt;font style=&quot;font-size: 10px;&quot;&gt;Send UUID and validation token to Blastoff&lt;br&gt;&lt;/font&gt;" style="rounded=0;whiteSpace=wrap;html=1;fontFamily=Helvetica;fontSize=12;fontColor=#000000;align=center;" parent="dNxyNK7c78bLwvsdeMH5-20" vertex="1">
          <mxGeometry x="120" y="20" width="80" height="60" as="geometry" />
        </mxCell>
        <mxCell id="22dtpbCGGIHCJg5DT9nd-26" value="Begin treating connection as bridged" style="whiteSpace=wrap;html=1;fontColor=#000000;rounded=0;" vertex="1" parent="dNxyNK7c78bLwvsdeMH5-20">
          <mxGeometry x="440" y="20" width="120" height="60" as="geometry" />
        </mxCell>
        <mxCell id="dNxyNK7c78bLwvsdeMH5-21" value="Blastoff" style="swimlane;html=1;startSize=20;horizontal=0;" parent="dNxyNK7c78bLwvsdeMH5-19" vertex="1">
          <mxGeometry x="20" y="120" width="580" height="120" as="geometry" />
        </mxCell>
        <mxCell id="dNxyNK7c78bLwvsdeMH5-26" value="&lt;font style=&quot;font-size: 10px;&quot;&gt;Use UUID to lookup server. Forward token&lt;/font&gt;" style="rounded=0;whiteSpace=wrap;html=1;fontFamily=Helvetica;fontSize=12;fontColor=#000000;align=center;" parent="dNxyNK7c78bLwvsdeMH5-21" vertex="1">
          <mxGeometry x="120" y="30" width="80" height="60" as="geometry" />
        </mxCell>
        <mxCell id="22dtpbCGGIHCJg5DT9nd-24" value="Send ClientValidated and bridge connection" style="whiteSpace=wrap;html=1;fontColor=#000000;rounded=0;" vertex="1" parent="dNxyNK7c78bLwvsdeMH5-21">
          <mxGeometry x="440" y="30" width="120" height="60" as="geometry" />
        </mxCell>
        <mxCell id="22dtpbCGGIHCJg5DT9nd-1" value="" style="edgeStyle=orthogonalEdgeStyle;rounded=0;orthogonalLoop=1;jettySize=auto;html=1;" edge="1" parent="dNxyNK7c78bLwvsdeMH5-19" source="dNxyNK7c78bLwvsdeMH5-24" target="dNxyNK7c78bLwvsdeMH5-26">
          <mxGeometry relative="1" as="geometry" />
        </mxCell>
        <mxCell id="22dtpbCGGIHCJg5DT9nd-8" style="edgeStyle=orthogonalEdgeStyle;rounded=0;orthogonalLoop=1;jettySize=auto;html=1;exitX=0.5;exitY=1;exitDx=0;exitDy=0;entryX=0;entryY=0.5;entryDx=0;entryDy=0;" edge="1" parent="dNxyNK7c78bLwvsdeMH5-19" source="dNxyNK7c78bLwvsdeMH5-26" target="22dtpbCGGIHCJg5DT9nd-6">
          <mxGeometry relative="1" as="geometry" />
        </mxCell>
        <mxCell id="22dtpbCGGIHCJg5DT9nd-25" value="" style="edgeStyle=orthogonalEdgeStyle;rounded=0;orthogonalLoop=1;jettySize=auto;html=1;fontFamily=Helvetica;fontSize=12;fontColor=#000000;" edge="1" parent="dNxyNK7c78bLwvsdeMH5-19" source="22dtpbCGGIHCJg5DT9nd-20" target="22dtpbCGGIHCJg5DT9nd-24">
          <mxGeometry relative="1" as="geometry" />
        </mxCell>
        <mxCell id="22dtpbCGGIHCJg5DT9nd-27" value="" style="edgeStyle=orthogonalEdgeStyle;rounded=0;orthogonalLoop=1;jettySize=auto;html=1;fontFamily=Helvetica;fontSize=12;fontColor=#000000;" edge="1" parent="dNxyNK7c78bLwvsdeMH5-19" source="22dtpbCGGIHCJg5DT9nd-24" target="22dtpbCGGIHCJg5DT9nd-26">
          <mxGeometry relative="1" as="geometry" />
        </mxCell>
        <mxCell id="dNxyNK7c78bLwvsdeMH5-22" value="Server" style="swimlane;html=1;startSize=20;horizontal=0;" parent="dNxyNK7c78bLwvsdeMH5-19" vertex="1">
          <mxGeometry x="20" y="240" width="580" height="210" as="geometry" />
        </mxCell>
        <mxCell id="22dtpbCGGIHCJg5DT9nd-21" value="" style="edgeStyle=orthogonalEdgeStyle;rounded=0;orthogonalLoop=1;jettySize=auto;html=1;" edge="1" parent="dNxyNK7c78bLwvsdeMH5-22" source="22dtpbCGGIHCJg5DT9nd-38" target="22dtpbCGGIHCJg5DT9nd-20">
          <mxGeometry relative="1" as="geometry" />
        </mxCell>
        <mxCell id="22dtpbCGGIHCJg5DT9nd-41" value="Yes" style="edgeLabel;html=1;align=center;verticalAlign=middle;resizable=0;points=[];rounded=0;strokeColor=default;fontFamily=Helvetica;fontSize=12;fontColor=#000000;fillColor=default;" vertex="1" connectable="0" parent="22dtpbCGGIHCJg5DT9nd-21">
          <mxGeometry x="-0.4333" y="1" relative="1" as="geometry">
            <mxPoint as="offset" />
          </mxGeometry>
        </mxCell>
        <mxCell id="22dtpbCGGIHCJg5DT9nd-54" value="" style="edgeStyle=orthogonalEdgeStyle;rounded=0;orthogonalLoop=1;jettySize=auto;html=1;fontFamily=Helvetica;fontSize=12;fontColor=#000000;" edge="1" parent="dNxyNK7c78bLwvsdeMH5-22" source="22dtpbCGGIHCJg5DT9nd-6" target="22dtpbCGGIHCJg5DT9nd-47">
          <mxGeometry relative="1" as="geometry" />
        </mxCell>
        <mxCell id="22dtpbCGGIHCJg5DT9nd-60" value="No" style="edgeLabel;html=1;align=center;verticalAlign=middle;resizable=0;points=[];" vertex="1" connectable="0" parent="22dtpbCGGIHCJg5DT9nd-54">
          <mxGeometry x="-0.45" y="-1" relative="1" as="geometry">
            <mxPoint as="offset" />
          </mxGeometry>
        </mxCell>
        <mxCell id="22dtpbCGGIHCJg5DT9nd-20" value="Send &quot;ClientValidated&quot; response" style="whiteSpace=wrap;html=1;fontColor=#000000;rounded=0;" vertex="1" parent="dNxyNK7c78bLwvsdeMH5-22">
          <mxGeometry x="460" y="130" width="80" height="60" as="geometry" />
        </mxCell>
        <mxCell id="22dtpbCGGIHCJg5DT9nd-39" value="" style="edgeStyle=orthogonalEdgeStyle;rounded=0;orthogonalLoop=1;jettySize=auto;html=1;" edge="1" parent="dNxyNK7c78bLwvsdeMH5-22" source="22dtpbCGGIHCJg5DT9nd-6" target="22dtpbCGGIHCJg5DT9nd-38">
          <mxGeometry relative="1" as="geometry">
            <mxPoint x="400" y="480" as="sourcePoint" />
            <mxPoint x="580" y="480" as="targetPoint" />
          </mxGeometry>
        </mxCell>
        <mxCell id="22dtpbCGGIHCJg5DT9nd-40" value="Yes" style="edgeLabel;html=1;align=center;verticalAlign=middle;resizable=0;points=[];rounded=0;strokeColor=default;fontFamily=Helvetica;fontSize=12;fontColor=#000000;fillColor=default;" vertex="1" connectable="0" parent="22dtpbCGGIHCJg5DT9nd-39">
          <mxGeometry x="-0.275" y="2" relative="1" as="geometry">
            <mxPoint x="-8" as="offset" />
          </mxGeometry>
        </mxCell>
        <mxCell id="22dtpbCGGIHCJg5DT9nd-43" value="" style="edgeStyle=orthogonalEdgeStyle;rounded=0;orthogonalLoop=1;jettySize=auto;html=1;fontFamily=Helvetica;fontSize=12;fontColor=#000000;" edge="1" parent="dNxyNK7c78bLwvsdeMH5-22" source="22dtpbCGGIHCJg5DT9nd-38" target="22dtpbCGGIHCJg5DT9nd-42">
          <mxGeometry relative="1" as="geometry" />
        </mxCell>
        <mxCell id="22dtpbCGGIHCJg5DT9nd-61" value="No" style="edgeLabel;html=1;align=center;verticalAlign=middle;resizable=0;points=[];" vertex="1" connectable="0" parent="22dtpbCGGIHCJg5DT9nd-43">
          <mxGeometry x="-0.2214" y="1" relative="1" as="geometry">
            <mxPoint as="offset" />
          </mxGeometry>
        </mxCell>
        <mxCell id="22dtpbCGGIHCJg5DT9nd-38" value="&lt;font style=&quot;font-size: 10px;&quot;&gt;Is the UUID valid?&lt;br&gt;&lt;/font&gt;" style="rhombus;whiteSpace=wrap;html=1;rounded=0;strokeColor=default;align=center;verticalAlign=middle;fontFamily=Helvetica;fontSize=12;fontColor=#000000;fillColor=default;" vertex="1" parent="dNxyNK7c78bLwvsdeMH5-22">
          <mxGeometry x="342.5" y="120" width="80" height="80" as="geometry" />
        </mxCell>
        <mxCell id="22dtpbCGGIHCJg5DT9nd-42" value="Send Redirect with UUID" style="whiteSpace=wrap;html=1;fontColor=#000000;rounded=0;" vertex="1" parent="dNxyNK7c78bLwvsdeMH5-22">
          <mxGeometry x="345" y="10" width="75" height="70" as="geometry" />
        </mxCell>
        <mxCell id="22dtpbCGGIHCJg5DT9nd-56" value="Close connection" style="ellipse;whiteSpace=wrap;html=1;aspect=fixed;rounded=0;strokeColor=default;align=center;verticalAlign=middle;fontFamily=Helvetica;fontSize=12;fontColor=#000000;fillColor=default;" vertex="1" parent="dNxyNK7c78bLwvsdeMH5-22">
          <mxGeometry x="235" y="-90" width="70" height="70" as="geometry" />
        </mxCell>
        <mxCell id="22dtpbCGGIHCJg5DT9nd-57" value="" style="edgeStyle=orthogonalEdgeStyle;rounded=0;orthogonalLoop=1;jettySize=auto;html=1;fontFamily=Helvetica;fontSize=12;fontColor=#000000;" edge="1" parent="dNxyNK7c78bLwvsdeMH5-22" source="22dtpbCGGIHCJg5DT9nd-47" target="22dtpbCGGIHCJg5DT9nd-56">
          <mxGeometry relative="1" as="geometry" />
        </mxCell>
        <mxCell id="22dtpbCGGIHCJg5DT9nd-47" value="Send Abort" style="whiteSpace=wrap;html=1;aspect=fixed;rounded=0;strokeColor=default;align=center;verticalAlign=middle;fontFamily=Helvetica;fontSize=12;fontColor=#000000;fillColor=default;" vertex="1" parent="dNxyNK7c78bLwvsdeMH5-22">
          <mxGeometry x="235" y="10" width="70" height="70" as="geometry" />
        </mxCell>
        <mxCell id="22dtpbCGGIHCJg5DT9nd-6" value="Is the Token valid?" style="rhombus;whiteSpace=wrap;html=1;fontColor=#000000;rounded=0;" vertex="1" parent="dNxyNK7c78bLwvsdeMH5-22">
          <mxGeometry x="230" y="120" width="80" height="80" as="geometry" />
        </mxCell>
        <mxCell id="22dtpbCGGIHCJg5DT9nd-63" style="edgeStyle=orthogonalEdgeStyle;rounded=0;orthogonalLoop=1;jettySize=auto;html=1;entryX=0.5;entryY=0;entryDx=0;entryDy=0;" edge="1" parent="dNxyNK7c78bLwvsdeMH5-19" source="22dtpbCGGIHCJg5DT9nd-42" target="dNxyNK7c78bLwvsdeMH5-26">
          <mxGeometry relative="1" as="geometry">
            <Array as="points">
              <mxPoint x="402" y="130" />
              <mxPoint x="180" y="130" />
            </Array>
          </mxGeometry>
        </mxCell>
      </root>
    </mxGraphModel>
  </diagram>
</mxfile>
